# xmcd
#
# Track frame offsets:
# 150
# 13107
# 30705
# 43200
# 57905
# 74439
# 92893
# 107432
# 118888
# 133319
# 149515
#
# Disc length: 2145 seconds
#
# Revision: 0
# Processed by: cddbd v1.5.2PL0 Copyright (c) Steve Scherf et al.
# Submitted via: Audion 3.0.2 (http://www.panic.com/audion/)
#
DISCID=a8085f0b
DTITLE=layabouts - layabouts
DYEAR=1900
DGENRE=
TTITLE0=stop the replay
TTITLE1=rat in a lab
TTITLE2=fine for me
TTITLE3=got you
TTITLE4=despite the neons
TTITLE5=carre
TTITLE6=electro rocker move
TTITLE7=naive
TTITLE8=out my strings
TTITLE9=in the sunshine
TTITLE10=perfect day
EXTD=
EXTT0=
EXTT1=
EXTT2=
EXTT3=
EXTT4=
EXTT5=
EXTT6=
EXTT7=
EXTT8=
EXTT9=
EXTT10=
PLAYORDER=
